<svg width="578" height="342" viewBox="0 0 578 342" fill="none" xmlns="http://www.w3.org/2000/svg">
<g clip-path="url(#clip0_224_2)">
<path d="M507.8 134.9C507.4 134.2 507 133.5 506.5 132.8C506 132 505.5 131.3 505 130.5C504.4 129.8 503.9 129.1 503.3 128.3C502.7 127.6 502.2 126.8 501.6 126.1C501.3 125.2 500.9 124.4 500.6 123.5C500.1 122.7 499.7 121.9 499.2 121.1C498.7 120.4 498.1 119.6 497.6 118.9C497.1 118.1 496.6 117.4 496.1 116.6C495.6 115.8 495.2 115 494.7 114.2C494.2 113.5 493.6 112.7 493.1 112C492.7 111.1 492.4 110.3 492 109.4C491.5 108.6 491 107.9 490.5 107.1C490 106.3 489.6 105.5 489.1 104.7C488.6 104 488 103.2 487.5 102.5C487 101.7 486.5 100.9 486 100.2C485.6 99.4 485.2 98.5 484.8 97.7C484.4 96.9 484 96.1 483.5 95.2C483 94.4 482.5 93.6 482 92.9C481.4 92.2 480.9 91.4 480.3 90.7C479.9 89.9 479.5 89 479.1 88.2C478.5 87.5 478 86.7 477.4 86C477.1 85.1 476.7 84.3 476.3 83.4C475.7 82.7 475.2 81.9 474.6 81.2C474.1 80.4 473.6 79.7 473.1 78.9C472.6 78.1 472.1 77.4 471.6 76.6C471.2 75.7 470.9 74.9 470.5 74C469.9 73.3 469.4 72.5 468.8 71.8C468.5 70.9 468.1 70 467.8 69.1C467.2 68.4 466.6 67.7 466 67C465.6 66.2 465.1 65.4 464.7 64.6C464.2 63.8 463.7 63.1 463.1 62.3C462.6 61.5 462.1 60.8 461.6 60C461.2 59.2 460.7 58.4 460.3 57.5C459.8 56.7 459.3 56 458.8 55.2C458.3 54.4 457.8 53.6 457.3 52.8C456.9 52 456.5 51.1 456.1 50.3C455.6 49.5 455.1 48.7 454.5 47.9C455.3 47.3 456.2 46.8 457 46.2C457.8 45.7 458.7 45.2 459.5 44.7C460.3 44.1 461.1 43.5 461.9 43C462.7 42.5 463.6 42 464.4 41.5C465.4 41.1 466.3 40.7 467.3 40.4C468.2 40 469.2 39.6 470.1 39.2C471 38.7 472 38.2 472.9 37.7C473.9 37.6 474.9 37.4 476 37.3C477 37.4 478 37.5 479 37.6C480 37.5 481 37.4 482 37.3C482.9 37.4 483.8 37.6 484.7 37.7C485.6 37.9 486.5 38.1 487.4 38.3C488.3 38.3 489.3 38.3 490.2 38.3C491.1 38.3 492.1 38.3 493 38.2C493.9 38.5 494.8 38.7 495.6 39C496.6 39.1 497.7 39.3 498.7 39.4C499.7 39.1 500.8 38.7 501.8 38.4C502.8 38.2 503.8 38 504.9 37.9C506 37.8 507 37.7 508.1 37.5C509.1 37.1 510.1 36.6 511.1 36.2C512 35.6 512.9 35 513.9 34.5C514.7 34 515.5 33.5 516.3 33C517 32.4 517.8 31.8 518.5 31.1C519.3 30.6 520.1 30 520.8 29.5C521.6 29 522.4 28.6 523.3 28.1C524.1 27.6 524.9 27.1 525.7 26.6C526.4 25.9 527.1 25.2 527.8 24.6C528.7 24.3 529.6 23.9 530.5 23.6C531.3 22.9 532.1 22.2 532.8 21.5C533.7 21 534.6 20.6 535.5 20.1C536.5 19.9 537.5 19.7 538.4 19.5C539.3 19 540.2 18.6 541.2 18.1C542.2 17.9 543.1 17.6 544.1 17.4C545.1 17.4 546.1 17.5 547 17.5C548 17.5 548.9 17.5 549.9 17.5C550.9 17.4 551.9 17.2 552.9 17.1C553.8 17.4 554.7 17.8 555.6 18.1C556.6 18.1 557.6 18.2 558.5 18.2C559.4 18.5 560.2 18.9 561.1 19.2C561.9 19.6 562.8 20 563.6 20.4C564.3 20.9 565.1 21.5 565.8 22C566.5 22.6 567.1 23.2 567.8 23.9C568.5 24.5 569.2 25.1 569.9 25.6C570.5 26.3 571.2 26.9 571.8 27.6C572.4 28.3 573 29 573.6 29.7C573.4 29.8 573.2 30 573 30.1C573.5 30.8 574 31.6 574.6 32.3C575.1 33.1 575.5 33.9 576 34.7C576.2 35.6 576.4 36.6 576.6 37.5C576.9 38.4 577.3 39.3 577.6 40.1C577.6 41.1 577.6 42.1 577.5 43C577.6 44 577.7 44.9 577.7 45.9C577.5 46.9 577.4 47.9 577.2 48.8C577.1 49.8 576.9 50.8 576.8 51.7C576.6 52.7 576.4 53.7 576.2 54.6C575.8 55.5 575.4 56.5 574.9 57.4C574.4 58.3 574 59.2 573.5 60.1C573.1 61 572.7 62 572.3 62.9C571.5 63.6 570.8 64.4 570 65.1C569.4 66 568.9 66.8 568.3 67.7C567.5 68.4 566.7 69 565.9 69.7C565.3 70.5 564.6 71.4 564 72.2C563.1 72.7 562.2 73.2 561.3 73.7C560.5 74.3 559.8 74.8 559 75.4C558.2 75.8 557.3 76.3 556.5 76.7C555.8 77.4 555.1 78.1 554.4 78.8C553.5 79.2 552.6 79.6 551.8 80C551.1 80.7 550.5 81.5 549.8 82.2C549 82.7 548.2 83.2 547.3 83.6C546.5 84.1 545.7 84.6 544.9 85.1C544.1 85.8 543.3 86.5 542.4 87.2C541.6 87.9 540.8 88.6 540 89.4C539.2 90.1 538.3 90.8 537.5 91.6C537 92.6 536.5 93.5 536 94.5C535.5 95.4 535 96.4 534.5 97.3C534 98.3 533.5 99.2 533 100.2C532.6 101.1 532.3 102 531.9 102.9C531.6 103.8 531.3 104.7 531 105.6C530.7 106.5 530.5 107.4 530.2 108.3C530 109.2 529.8 110.2 529.6 111.1C529.3 112 528.9 112.9 528.6 113.8C528.3 114.8 528 115.8 527.7 116.8C527.1 117.7 526.6 118.6 526 119.5C525.4 120.4 524.8 121.3 524.3 122.2C523.6 123 522.9 123.8 522.2 124.6C521.3 125.2 520.5 125.9 519.6 126.5C518.8 127.2 518 127.8 517.1 128.5C516.4 129.2 515.6 129.8 514.9 130.5C514 130.9 513 131.2 512.1 131.6C511.3 132.2 510.5 132.8 509.7 133.3C509.3 134 508.5 134.4 507.8 134.9Z" fill="#FFF8EF"/>
<path d="M550.8 56.3C549.9 56.9 549 57.6 548.1 58.2C547.1 58.2 546 58.2 545 58.2C544 58.1 543 58 542 57.9C541.1 57.4 540.3 57 539.4 56.5C538.8 55.8 538.2 55 537.6 54.3C537.3 53.4 537 52.5 536.8 51.5C536.5 50.5 536.3 49.6 536 48.6C536.4 47.6 536.7 46.6 537.1 45.6C537.6 44.6 538.1 43.7 538.6 42.7C539.5 42.1 540.5 41.6 541.4 41C542.3 40.4 543.2 39.7 544 39.1C545 39.1 546.1 39.2 547.1 39.2C548.1 39.3 549.1 39.3 550.1 39.4C551 39.8 551.9 40.2 552.8 40.6C553.3 41.4 553.8 42.3 554.3 43.1C554.7 43.9 555.2 44.8 555.6 45.6C555.7 46.6 555.7 47.6 555.8 48.6C555.5 49.6 555.2 50.6 554.9 51.6C554.4 52.6 554 53.6 553.5 54.5C552.6 55.1 551.7 55.7 550.8 56.3Z" fill="#23211D"/>
<path d="M472.5 77.8C472.1 76.7 471.6 75.6 471.2 74.6C472 74.2 472.8 73.8 473.7 73.5C474.4 72.8 475.1 72.1 475.8 71.4C476.7 70.8 477.7 70.2 478.6 69.6C479.4 69.1 480.3 68.7 481.1 68.2C481.9 67.5 482.7 66.9 483.5 66.2C484.4 65.8 485.4 65.3 486.3 64.9C487.1 64.3 487.9 63.7 488.7 63.1C489.6 62.6 490.6 62.1 491.5 61.5C492.4 61 493.2 60.5 494.1 60C494.9 59.5 495.7 59 496.5 58.5C497.3 57.7 498 57 498.8 56.2C499.8 55.8 500.8 55.3 501.8 54.9C502.6 54.4 503.4 53.9 504.2 53.4C505 52.8 505.8 52.1 506.7 51.5C507.6 51 508.5 50.5 509.3 49.9C510.1 49.3 510.9 48.7 511.7 48.1C512.6 47.5 513.4 47 514.3 46.4C515.1 45.8 515.9 45.2 516.7 44.5C517.7 43.9 518.6 43.3 519.6 42.7C520.5 42.3 521.4 41.9 522.2 41.4C523 40.9 523.8 40.3 524.7 39.7C525.5 39.2 526.3 38.7 527.1 38.2C527.8 37.4 528.6 36.7 529.3 35.9C530.2 35.3 531.2 34.7 532.1 34.2C533 33.7 533.8 33.2 534.7 32.7C535.5 32.1 536.4 31.4 537.2 30.8C538.2 30.3 539.3 29.8 540.3 29.2C541.4 28.9 542.5 28.5 543.6 28.2C544.6 28 545.6 27.9 546.6 27.7C547.6 27.6 548.6 27.4 549.6 27.3C550.7 27.2 551.8 27.1 553 26.9C554.1 27.2 555.2 27.5 556.3 27.8C557.3 28.3 558.2 28.8 559.2 29.3C560 29.9 560.7 30.4 561.5 31C562.3 31.6 563.2 32.3 564 32.9C564.2 33.3 564.4 33.7 564.6 34.1C564.8 34 565 33.8 565.2 33.7C565.7 35.3 566.3 36.9 566.8 38.5C567 39.5 567.3 40.4 567.5 41.4C567.6 42.4 567.8 43.3 567.9 44.3C568 45.4 568.1 46.4 568.1 47.5C567.9 48.6 567.6 49.8 567.4 50.9C567 51.9 566.6 52.9 566.1 53.8C565.7 54.8 565.3 55.9 565 56.9C564.3 57.9 563.6 58.8 562.9 59.8C562.1 60.6 561.3 61.5 560.5 62.3C559.6 62.9 558.7 63.6 557.8 64.2C557 64.9 556.1 65.5 555.3 66.2C554.5 66.8 553.6 67.4 552.8 67.9C552 68.5 551.1 69.2 550.3 69.8C549.4 70.4 548.5 70.9 547.6 71.5C546.7 72.1 545.8 72.7 544.9 73.3C544 73.8 543.1 74.3 542.3 74.8C541.5 75.3 540.6 75.8 539.8 76.4C539 77 538.2 77.6 537.5 78.2C536.7 78.9 535.9 79.6 535 80.3C534.1 80.8 533.1 81.3 532.2 81.8C531.3 82.4 530.5 82.9 529.6 83.5C528.8 84 527.9 84.4 527.1 84.9C526.4 85.5 525.6 86.2 524.9 86.8C524.1 87.5 523.2 88.2 522.4 88.9C521.5 89.4 520.6 89.9 519.6 90.4C518.8 91 517.9 91.6 517.1 92.1C516.2 92.6 515.3 93.1 514.4 93.6C513.6 94.2 512.7 94.8 511.9 95.4C511 95.9 510.1 96.4 509.2 96.9C508.4 97.4 507.7 97.9 506.9 98.4C506.2 99.2 505.4 99.9 504.7 100.7C503.7 101.3 502.7 101.9 501.7 102.4C500.8 102.8 500 103.3 499.1 103.7C498.3 104.3 497.6 104.8 496.8 105.4C495.9 106.1 495.1 106.7 494.2 107.4C493.2 107.9 492.2 108.4 491.3 108.8C490.8 107.7 490.4 106.7 489.9 105.6C490.8 105.2 491.6 104.8 492.5 104.3C493.3 103.7 494 103.1 494.8 102.5C495.7 101.9 496.5 101.2 497.4 100.6C498.3 100.1 499.3 99.6 500.2 99.1C501 98.6 501.8 98.2 502.6 97.7C503.3 97 504 96.2 504.8 95.5C505.7 94.9 506.7 94.2 507.6 93.6C508.5 93.1 509.4 92.6 510.3 92.2C511.1 91.6 512 91 512.8 90.4C513.7 89.9 514.6 89.4 515.5 88.9C516.3 88.3 517.2 87.7 518 87.2C518.9 86.7 519.7 86.3 520.6 85.8C521.3 85.2 522.1 84.6 522.8 84C523.6 83.3 524.5 82.6 525.3 81.8C526.2 81.3 527.2 80.8 528.1 80.3C529 79.7 529.9 79.2 530.8 78.6C531.6 78.2 532.5 77.7 533.3 77.3C534.1 76.6 534.8 76 535.6 75.3C536.4 74.7 537.3 74 538.1 73.4C539 72.8 539.9 72.2 540.9 71.7C541.8 71.2 542.6 70.7 543.5 70.2C544.4 69.6 545.2 69.1 546.1 68.5C546.9 68 547.8 67.5 548.6 66.9C549.4 66.3 550.2 65.6 551 65C551.8 64.4 552.6 63.8 553.5 63.3C554.3 62.7 555.1 62 556 61.4C556.8 60.8 557.6 60.3 558.4 59.7C559 59 559.7 58.3 560.3 57.7C560.8 57 561.4 56.2 561.9 55.5C562.2 54.6 562.6 53.7 562.9 52.8C563.3 51.9 563.7 51 564 50.2C564.2 49.4 564.4 48.5 564.5 47.7C564.4 46.8 564.4 46 564.3 45.1C564.2 44.2 564 43.3 563.9 42.4C563.7 41.5 563.5 40.7 563.2 39.8C563.1 39.6 563.1 39.4 563 39.2C562.9 39.2 562.9 39.3 562.8 39.3C562.2 38 561.5 36.7 560.9 35.3C560.3 34.8 559.6 34.3 559 33.8C558.3 33.3 557.6 32.8 556.8 32.2C556 31.8 555.3 31.4 554.5 31.1C553.7 30.9 552.9 30.7 552.2 30.5C551.3 30.6 550.4 30.7 549.5 30.8C548.5 30.9 547.6 31.1 546.6 31.2C545.7 31.4 544.7 31.5 543.8 31.7C542.9 32 542 32.2 541.2 32.5C540.4 32.9 539.6 33.3 538.7 33.7C537.9 34.3 537.1 34.9 536.3 35.5C535.4 36 534.5 36.6 533.6 37.1C532.8 37.6 532 38.1 531.2 38.6C530.5 39.4 529.7 40.1 529 40.9C528.1 41.5 527.1 42 526.2 42.6C525.3 43.2 524.5 43.8 523.6 44.4C522.7 44.8 521.7 45.3 520.8 45.7C520 46.2 519.2 46.7 518.4 47.2C517.6 47.8 516.8 48.4 516 49.1C515.1 49.7 514.3 50.2 513.4 50.8C512.6 51.4 511.8 52.1 510.9 52.7C510 53.2 509.2 53.7 508.3 54.3C507.5 54.9 506.7 55.5 505.9 56.1C505 56.7 504.1 57.3 503.2 57.9C502.3 58.3 501.5 58.7 500.6 59.1C499.9 59.8 499.2 60.5 498.5 61.2C497.6 61.8 496.6 62.4 495.7 63C494.8 63.5 493.9 64 493.1 64.5C492.3 65 491.4 65.5 490.6 65.9C489.8 66.5 488.9 67.2 488.1 67.8C487.2 68.2 486.3 68.6 485.4 69.1C484.6 69.7 483.9 70.4 483.1 71C482.2 71.5 481.3 72 480.3 72.5C479.5 73 478.7 73.5 478 74C477.2 74.8 476.4 75.5 475.7 76.3C474.5 76.8 473.5 77.3 472.5 77.8Z" fill="#C0A47F"/>
<path d="M466.1 67.2999C465.7 66.1999 465.2 65.0999 464.8 64.0999C465.6 63.6999 466.4 63.2999 467.3 62.9999C468 62.2999 468.8 61.6999 469.5 60.9999C470.4 60.4999 471.4 59.9999 472.3 59.3999C473.2 58.8999 474 58.4999 474.9 57.9999C475.7 57.4999 476.5 56.8999 477.4 56.3999C478.2 55.8999 479 55.3999 479.8 54.8999C480.5 54.1999 481.3 53.4999 482 52.8999C482.9 52.2999 483.9 51.6999 484.8 51.0999C485.7 50.6999 486.7 50.2999 487.6 49.7999C488.4 49.2999 489.1 48.8999 489.9 48.3999C490.7 47.6999 491.5 46.9999 492.2 46.2999C493.2 45.7999 494.1 45.2999 495.1 44.7999C495.6 45.8999 496 46.8999 496.5 47.9999C495.7 48.3999 494.9 48.7999 494.1 49.2999C493.4 49.9999 492.6 50.5999 491.9 51.2999C490.9 51.8999 489.9 52.3999 489 52.9999C488.1 53.3999 487.3 53.7999 486.4 54.1999C485.7 54.6999 484.9 55.1999 484.2 55.5999C483.4 56.2999 482.7 56.9999 481.9 57.6999C481 58.1999 480.1 58.7999 479.2 59.2999C478.4 59.8999 477.5 60.3999 476.7 60.9999C475.8 61.4999 474.9 61.9999 474 62.4999C473.2 62.8999 472.4 63.3999 471.6 63.7999C470.8 64.4999 470 65.1999 469.3 65.8999C468.1 66.3999 467.1 66.7999 466.1 67.2999Z" fill="#C0A47F"/>
<path d="M498.2 119.8C497.6 118.8 497 117.8 496.4 116.9C497.3 116.3 498.2 115.7 499.1 115.1C500 114.8 500.9 114.5 501.7 114.1C502.4 113.4 503.1 112.6 503.8 111.9C504.8 111.5 505.8 111 506.8 110.6C507.6 110.1 508.3 109.6 509.1 109.1C509.9 108.4 510.7 107.8 511.5 107.1C512.4 106.5 513.2 105.9 514.1 105.4C515 104.9 515.8 104.5 516.7 104C517.5 103.4 518.2 102.7 519 102.1C519.9 101.5 520.8 100.8 521.6 100.2C522.5 99.7999 523.4 99.4999 524.3 99.0999C525 98.4999 525.6 97.8999 526.3 97.2999C527.1 98.0999 527.8 98.9999 528.6 99.7999C527.8 100.6 526.9 101.4 526.1 102.1C525.1 102.5 524.1 102.9 523.2 103.3C522.5 103.8 521.7 104.3 521 104.9C520.2 105.6 519.4 106.3 518.6 107C517.7 107.5 516.8 108 515.8 108.5C515 109 514.3 109.5 513.5 110.1C512.7 110.8 511.9 111.4 511.2 112.1C510.3 112.7 509.4 113.3 508.4 113.9C507.6 114.3 506.7 114.7 505.9 115C505.2 115.8 504.4 116.5 503.7 117.3C502.7 117.7 501.6 118.1 500.6 118.4C499.7 118.7 499 119.3 498.2 119.8Z" fill="#C0A47F"/>
<path d="M459.4 83C455.1 85.3 450.8 87.6 446.5 90C442.4 92.7 438.3 95.4 434.2 98C429.8 100.1 425.4 102.2 421 104.3C416.9 107 412.8 109.6 408.7 112.2C404.3 114.3 400 116.5 395.6 118.6C391.2 120.7 386.9 122.8 382.5 124.9C378.1 127 373.8 129 369.4 131.1C364.9 132.7 360.3 134.3 355.8 135.9C351.5 138 347.2 140.1 342.8 142.1C338.5 144.1 334.1 146.1 329.8 148.1C325.3 149.8 320.9 151.5 316.4 153.2C312.1 155.2 307.7 157.2 303.4 159.2C298.8 160.4 294.2 161.7 289.5 162.9C285.1 164.8 280.8 166.6 276.4 168.5C271.9 170 267.4 171.4 262.9 172.8C258.6 174.7 254.2 176.6 249.9 178.4C245.4 179.9 241 181.5 236.5 183C231.9 184.1 227.3 185.1 222.7 186.1C218.3 187.8 213.9 189.5 209.6 191.2C205 192.2 200.4 193.2 195.8 194.1C191.4 195.6 186.9 197.1 182.5 198.6C177.9 199.6 173.3 200.6 168.8 201.6C164.4 203.1 160 204.7 155.6 206.2C151.1 207.5 146.7 208.8 142.2 210.1C137.7 211.2 133.2 212.3 128.6 213.3C124 214 119.3 214.6 114.7 215.2C110.3 216.5 105.8 217.8 101.4 219.1C96.9 220.1 92.3 221 87.8 221.9C83.3 222.8 78.7 223.7 74.2 224.5C69.5 224.9 64.9 225.3 60.2 225.6C55.7 226.5 51.1 227.3 46.6 228.1C42 228.8 37.5 229.5 32.9 230.2C28.4 231 23.9 231.8 19.3 232.6C14.7 233.6 10.2 234.5 5.59998 235.4C10.4 234.9 15.1 234.3 19.9 233.8C24.6 233.4 29.3 232.9 34 232.4C38.8 232.3 43.5 232.2 48.3 232C52.9 231.2 57.6 230.5 62.2 229.7C67 229.5 71.7 229.2 76.5 229C81.1 228.1 85.8 227.3 90.4 226.4C95.1 225.6 99.7 224.8 104.4 224C109.1 223.3 113.8 222.7 118.5 222C123.2 221.4 128 220.8 132.7 220.2C137.4 219.2 142 218.3 146.7 217.3C151.4 216.4 156.1 215.6 160.8 214.7C165.5 214.1 170.3 213.4 175.1 212.8C179.8 211.8 184.4 210.7 189.1 209.7C193.8 208.6 198.4 207.5 203.1 206.4C207.9 205.9 212.7 205.4 217.6 204.9C222.2 203.7 226.9 202.5 231.6 201.3C236.2 199.9 240.8 198.5 245.4 197C250 195.7 254.7 194.5 259.4 193.2C264.2 192.6 269.1 191.9 273.9 191.3C278.5 189.9 283.2 188.6 287.8 187.2C292.5 185.9 297.1 184.5 301.8 183.1C306.3 181.3 310.9 179.5 315.4 177.7C320.1 176.5 324.8 175.2 329.5 174C334.2 172.6 338.8 171.2 343.5 169.8C348.2 168.4 352.9 167 357.5 165.6C362.2 164.2 366.8 162.7 371.5 161.2C376 159.3 380.6 157.4 385.1 155.5C389.8 154.1 394.5 152.7 399.2 151.2C403.6 149 408.1 146.8 412.5 144.5C417.2 143 421.9 141.5 426.6 139.9C431.2 138.1 435.8 136.3 440.4 134.4C445 132.4 449.5 130.5 454.1 128.5C458.7 126.6 463.3 124.7 467.9 122.7C472.5 120.4 477 118 481.6 115.6C478.8 112.2 476 108.7 473.2 105.3C471.1 101.4 469 97.5 467 93.6C464.3 90.2 461.8 86.6 459.4 83Z" fill="#FD6337"/>
<path d="M20 200.6L22.5 190.4L26.8 180.4L38.2 185L50.7 185.6L58.1 180.7L48 175.4L44.1 173.8L32.4 168.2L24.3 158.4L21.3 146L24.3 133.8L31.7 123.8L43 117.7L55.6 114.4L71.1 115.2L86.6 118.7L81.8 130.4L78.1 141.4L67.2 138.8L55.8 138L49.1 142.6L57.4 147.3L60.5 149.3L72.8 153.4L82.9 160.8L85.5 173.5L82.6 186.6L75.6 198L63.7 204.3L50.5 206.9L34.5 206.2L20 200.6Z" fill="#FFF8EF"/>
<path d="M100.1 110.3L112.1 107.2L124.2 105.5L136 102.3L151.1 101.5L162.6 109.9L164.5 124.9V138L158.1 149.4L148.2 157.5L136.6 163.5L126.8 165.2L127.8 179.2L126.7 193.1L113.7 197.1L99.8 199.4L100 184.3L100.2 169.6L99.7 154.9L99.5 140L99.3 125.3L100.1 110.3ZM132.3 141L138 131.5L132.3 126.1L126.6 127.7L126 143L132.3 141Z" fill="#FFF8EF"/>
<path d="M218.4 152.1L198.9 158.1L197.5 172.3L184 177L170.7 180.5L173.1 167.4L175.9 154L178.8 140.6L180.8 127L184 113.7L185.5 100.1L188.6 86.9001L202 81.4001L216 77.3001L229.4 73.2001L232.7 86.1001L236.2 99.7001L239 113.4L241.7 127.1L243.5 141L247.3 154.5L233.7 158.8L220.8 163.3L218.4 152.1ZM214.7 131.8L215.2 130.1L211.5 115.5L208.9 100.7H208.5L206.2 117.4L203.3 134L203.5 136.3L214.7 131.8Z" fill="#FFF8EF"/>
<path d="M250.3 109.2L253 94.2001L256.1 79.3001L264.9 66.9001L276 56.8001L289 48.9001L305.1 45.7001L318.5 54.0001L324.9 69.0001L310.3 76.3001L296.9 85.1001L289.2 72.3001L280.9 83.9001L280.8 98.4001L282.3 110.5L289.4 119.1L296.5 99.8001L310.6 98.0001L324.6 96.6001L319.9 110.8L313.2 124.1L303 135.2L289.4 142.1L273.8 143.8L259.7 138.4L252.7 124.7L250.3 109.2Z" fill="#FFF8EF"/>
<path d="M334.2 34.5L349.8 29.2L365.5 25.8L380.5 20.3L396.3 15.9L395.8 28L395.3 38.9L379.4 43.2L362.8 48.2L363.6 58.4L377.2 54L390.9 51.2L390.8 72L377.6 77.2L363.4 80.5L363.2 91.6L379.5 86.2L395.8 81.9L395.7 93.5L396 105.3L380.4 109.5L365.3 114.7L350.1 119.5L334.2 124.3L333.8 108.9L334.1 94.2L334.8 79.5L335 64.8L335.1 50.1L334.2 34.5Z" fill="#FFF8EF"/>
<path d="M93.4 252L109.4 250.1L125 249.1L140.2 245.4L155.2 244L154.7 254.8L155.1 266.8L138.4 269.4L122.6 273.1L121.5 282.6L135.7 279.4L150.3 277L148.3 298.5L134.8 301.2L120.4 303.6L120.5 314.1L136.7 312.3L153.2 308.1L151.6 320.2L152.2 332L136.7 334.9L121.3 337.2L106 340.4L90.1 341.5L90.3 326.4L90.7 311.7L92.3 297L92.2 282.2L93.9 267.5L93.4 252Z" fill="#FFF8EF"/>
<path d="M166.6 322L170.4 310.9L174.3 298.9L186.6 302.7L198.5 299.4L206.5 293.8L196.3 290.5L192.2 290.8L180.6 287L172.8 278.5L170.2 267L172.5 253L181.3 241.8L193.2 234.3L206.4 229.8L221.2 225.6L236.6 227.9L231.7 239.7L227.6 251.2L216.6 250.9L205.3 251.3L197.4 257.6L206.4 261.1L209.8 260.9L221.9 264L231.5 270.5L233.8 282.4L230.5 296.4L222.8 308.5L210.8 316.4L197.6 322.2L181.9 324.9L166.6 322Z" fill="#FFF8EF"/>
<path d="M244.1 263.4L244.9 248.2L250.4 233.9L259.7 222L270.9 212.2L284.3 205.3L300.3 202.1L313.6 210.7L318.5 225.7L305 234.1L290.7 241.3L283.3 228.1L276.5 240.1L274.1 254.1L275.1 266.2L281.4 273.4L290 256.2L303.8 254.4L318.5 253.1L312.5 267.6L305.9 281.2L294.7 291.5L280.6 297.1L265.2 299.5L250.7 293.7L244.7 279.1L244.1 263.4Z" fill="#FFF8EF"/>
<path d="M368.1 255L348.9 261.1L345.7 274L332.6 278.6L319 283.1L322.1 269.6L325.9 256.3L327.4 242.5L330.6 229.1L334.1 215.8L337.4 202.4L340.1 188.6L354.4 184.6L368.2 179.8L382.9 175.8L385 190.5L388 204.3L389.1 218.5L392.7 232.2L393.7 246.4L397.4 260.4L383.2 262.9L369.5 268.3L368.1 255ZM365.2 235.1L364.8 233.3L363.4 218.3L360.9 203.4L360.4 203.6L357.2 220.1L353.2 236.4L353.4 237.2L365.2 235.1Z" fill="#FFF8EF"/>
<path d="M409.9 169.8L421 165.6L433.2 164L445.1 160.7L460.6 162.1L472.1 171.6L474.4 187.3L471.2 199.6L466.4 211.4L455.6 218.3L443.4 221.5L433.5 223.5L433.1 237.6L433.4 252.2L419 253.8L405.6 258L405.9 243L407 228.3V213.5L407.2 198.8L409.6 184.1L409.9 169.8ZM440.4 200.9L446.2 190.7L440.8 184.9L435.7 186.6L433.8 201.6L440.4 200.9Z" fill="#FFF8EF"/>
<path d="M483.9 155.3L499.1 153.4L514.5 153.5L529.8 151.6L545.2 152.3L544 164L543.6 174.8L527.9 175.3L511.4 175.4L510.8 186.5L525.3 185.6L539.1 185.5L537.7 206.4L524.5 207.5L510.3 207L509.9 218.3L526.4 216.5L542.1 218.3L542.7 229.2L541.5 240.5L526.3 240.8L511 241.7L495.7 242.2L479.9 244L480.7 228.7L481.6 214L481.3 199.2L481.9 184.5L482.4 169.8L483.9 155.3Z" fill="#FFF8EF"/>
<path d="M425 22.6L430.9 27.7999L437 22.6L430.9 16.7L425 22.6Z" fill="white"/>
<path d="M20.5 313.6L25.7 319.3L30.8 313.6L25.7 308.3L20.5 313.6Z" fill="white"/>
<path d="M51.7 271.8L51.5 270.6L51.7 264.7L48.7 264.6L48.5 270.9L48.7999 272.4L47.4 272.6L41.4 272.3L41.2 275.3L47.5999 275.7L49.2999 275.3L49.5999 276.9L48.5999 282.8L51.5 283.4L52.7 276.9L52.2999 274.7L53.5999 274.5L59.5 275.7L60.0999 272.8L53.5999 271.4L51.7 271.8Z" fill="white"/>
<path d="M577.3 121.3L577.1 118.3L571 118.7L568.9 118.5L568.7 116.6L568.8 110.5H565.8L565.7 116.7L565.9 118.2L564.8 118.1L558.5 119L558.9 121.9L564.9 121.1L566.2 121.3L566.4 122.9L566.2 129H569.2L569.4 122.8L569.3 121.6L571 121.7L577.3 121.3Z" fill="white"/>
<path d="M428.9 68.3L429 66.9L428.7 60.7L425.7 60.7999L426 66.9L425.8 68.6999L423.9 68.9H417.8V71.9H424L425.6 71.6999L425.5 73.0999L426 79.3L429 79.0999L428.5 73.0999L428.6 71.3L430.2 71.1999L436.2 71.8L436.5 68.8L430.1 68.0999L428.9 68.3Z" fill="white"/>
<path d="M471.6 3.1L474.3 6.1L477.1 3.1L474.3 0L471.6 3.1Z" fill="white"/>
<path d="M0 271.1L2.9 273.8L6 271.1L2.9 268.3L0 271.1Z" fill="white"/>
</g>
<defs>
<clipPath id="clip0_224_2">
<rect width="578" height="341.4" fill="white"/>
</clipPath>
</defs>
</svg>
