<svg width="20" height="40" viewBox="0 0 20 40" fill="none" xmlns="http://www.w3.org/2000/svg">
<path d="M7.9251 27.5583H3.43905L2.70539 28.3048C0.970577 30.0768 0 32.4445 0 34.9027V38.9444C0 39.525 0.481467 40 1.06993 40C1.48261 40 1.84945 39.7738 2.03286 39.4119C3.26328 36.9386 7.9251 27.5583 7.9251 27.5583Z" fill="#F577B8"/>
<path d="M12.075 27.5583H16.561L17.2947 28.3048C19.0295 30.0768 20.0001 32.437 20.0001 34.9027V38.9444C20.0001 39.525 19.5186 40 18.9301 40C18.5174 40 18.1506 39.7738 17.9672 39.4119C16.7444 36.9386 12.075 27.5583 12.075 27.5583Z" fill="#F577B8"/>
<path d="M5.81581 36.3655H14.1842C15.1547 34.8499 15.9878 33.2589 16.6756 31.5849C18.1582 27.973 18.9148 24.1651 18.9148 20.2517C18.9148 16.3382 18.1658 12.5227 16.6756 8.91842C15.4528 5.93242 13.7638 3.19525 11.6546 0.752156C10.7833 -0.250719 9.20901 -0.250719 8.34543 0.752156C6.23614 3.18771 4.54718 5.93242 3.32441 8.91088C1.8418 12.5227 1.08521 16.3306 1.08521 20.2441C1.08521 24.1576 1.8418 27.973 3.32441 31.5849C4.01222 33.2589 4.84524 34.8574 5.81581 36.3655Z" fill="#F8E5CD"/>
<path d="M4.7229 33.2212H15.277" stroke="#110C29" stroke-miterlimit="10" stroke-linecap="round"/>
<path d="M10.0038 40C9.63694 40 9.33124 39.721 9.30067 39.3591L8.52116 29.1268C8.46002 28.2747 9.14019 27.5583 9.99613 27.5583C10.8597 27.5583 11.5399 28.2822 11.4711 29.1268L10.6916 39.3591C10.6763 39.721 10.3706 40 10.0038 40Z" fill="#F577B8"/>
<path d="M9.98102 19.573C11.7115 19.573 13.1144 18.1889 13.1144 16.4815C13.1144 14.774 11.7115 13.3899 9.98102 13.3899C8.25051 13.3899 6.84766 14.774 6.84766 16.4815C6.84766 18.1889 8.25051 19.573 9.98102 19.573Z" stroke="#110C29" stroke-miterlimit="10"/>
<path d="M6.84756 16.4814H1.78833" stroke="#110C29" stroke-miterlimit="10" stroke-linecap="round"/>
<path d="M13.1143 16.4814H17.9824" stroke="#110C29" stroke-miterlimit="10" stroke-linecap="round"/>
<path d="M9.98096 13.3899V3.29327" stroke="#110C29" stroke-miterlimit="10" stroke-linecap="round"/>
<path d="M7.06152 3.29327H12.9461" stroke="#110C29" stroke-miterlimit="10" stroke-linecap="round"/>
</svg>
